<svg width="24" height="24" viewBox="0 0 24 24" fill="none" xmlns="http://www.w3.org/2000/svg">
<path d="M2.57277 16.2857H14.2844C14.3596 16.2858 14.4341 16.271 14.5036 16.2422C14.5732 16.2135 14.6363 16.1713 14.6895 16.1181C14.7427 16.0649 14.7849 16.0017 14.8137 15.9322C14.8424 15.8627 14.8572 15.7882 14.8571 15.7129V14.0013C14.8572 13.9261 14.8424 13.8516 14.8137 13.7821C14.7849 13.7126 14.7427 13.6494 14.6895 13.5962C14.6363 13.543 14.5732 13.5008 14.5036 13.4721C14.4341 13.4433 14.3596 13.4285 14.2844 13.4286H2.57277C2.49753 13.4285 2.42303 13.4433 2.35351 13.4721C2.28399 13.5008 2.22083 13.543 2.16763 13.5962C2.11443 13.6494 2.07224 13.7126 2.04348 13.7821C2.01472 13.8516 1.99994 13.9261 2 14.0013V15.7129C1.99994 15.7882 2.01472 15.8627 2.04348 15.9322C2.07224 16.0017 2.11443 16.0649 2.16763 16.1181C2.22083 16.1713 2.28399 16.2135 2.35351 16.2422C2.42303 16.271 2.49753 16.2858 2.57277 16.2857ZM2.57277 4.85714H14.2844C14.3596 4.8572 14.4341 4.84243 14.5036 4.81366C14.5732 4.7849 14.6363 4.74271 14.6895 4.68951C14.7427 4.63632 14.7849 4.57315 14.8137 4.50363C14.8424 4.43412 14.8572 4.35961 14.8571 4.28438V2.57277C14.8572 2.49753 14.8424 2.42303 14.8137 2.35351C14.7849 2.28399 14.7427 2.22083 14.6895 2.16763C14.6363 2.11443 14.5732 2.07224 14.5036 2.04348C14.4341 2.01472 14.3596 1.99994 14.2844 2H2.57277C2.49753 1.99994 2.42303 2.01472 2.35351 2.04348C2.28399 2.07224 2.22083 2.11443 2.16763 2.16763C2.11443 2.22083 2.07224 2.28399 2.04348 2.35351C2.01472 2.42303 1.99994 2.49753 2 2.57277V4.28438C1.99994 4.35961 2.01472 4.43412 2.04348 4.50363C2.07224 4.57315 2.11443 4.63632 2.16763 4.68951C2.22083 4.74271 2.28399 4.7849 2.35351 4.81366C2.42303 4.84243 2.49753 4.8572 2.57277 4.85714ZM21.2857 7.71429H2.71429C2.52485 7.71429 2.34316 7.78954 2.20921 7.9235C2.07526 8.05745 2 8.23913 2 8.42857V9.85714C2 10.0466 2.07526 10.2283 2.20921 10.3622C2.34316 10.4962 2.52485 10.5714 2.71429 10.5714H21.2857C21.4752 10.5714 21.6568 10.4962 21.7908 10.3622C21.9247 10.2283 22 10.0466 22 9.85714V8.42857C22 8.23913 21.9247 8.05745 21.7908 7.9235C21.6568 7.78954 21.4752 7.71429 21.2857 7.71429ZM21.2857 19.1429H2.71429C2.52485 19.1429 2.34316 19.2181 2.20921 19.3521C2.07526 19.486 2 19.6677 2 19.8571V21.2857C2 21.4752 2.07526 21.6568 2.20921 21.7908C2.34316 21.9247 2.52485 22 2.71429 22H21.2857C21.4752 22 21.6568 21.9247 21.7908 21.7908C21.9247 21.6568 22 21.4752 22 21.2857V19.8571C22 19.6677 21.9247 19.486 21.7908 19.3521C21.6568 19.2181 21.4752 19.1429 21.2857 19.1429Z" fill="#D1D1D3"/>
</svg>
