<svg width="20" height="20" viewBox="0 0 20 20" fill="none" xmlns="http://www.w3.org/2000/svg">
<path d="M0 10C0 15.5242 4.47581 20 10 20C15.5242 20 20 15.5242 20 10C20 4.47581 15.5242 0 10 0C4.47581 0 0 4.47581 0 10ZM18.0645 10C18.0645 14.4556 14.4556 18.0645 10 18.0645C5.54435 18.0645 1.93548 14.4556 1.93548 10C1.93548 5.54435 5.54435 1.93548 10 1.93548C14.4556 1.93548 18.0645 5.54435 18.0645 10ZM15.1613 9.19355V10.8065C15.1613 11.0726 14.9435 11.2903 14.6774 11.2903H10V13.9919C10 14.4234 9.47984 14.6371 9.17339 14.3347L5.18145 10.3427C4.99194 10.1532 4.99194 9.84677 5.18145 9.65726L9.17339 5.66532C9.47984 5.35887 10 5.57661 10 6.00806V8.70968H14.6774C14.9435 8.70968 15.1613 8.92742 15.1613 9.19355Z" fill="white"/>
</svg>
