<svg width="24" height="24" viewBox="0 0 24 24" fill="none" xmlns="http://www.w3.org/2000/svg">
<path d="M2 12C2 17.5242 6.47581 22 12 22C17.5242 22 22 17.5242 22 12C22 6.47581 17.5242 2 12 2C6.47581 2 2 6.47581 2 12ZM20.0645 12C20.0645 16.4556 16.4556 20.0645 12 20.0645C7.54435 20.0645 3.93548 16.4556 3.93548 12C3.93548 7.54435 7.54435 3.93548 12 3.93548C16.4556 3.93548 20.0645 7.54435 20.0645 12ZM17.1613 11.1935V12.8065C17.1613 13.0726 16.9435 13.2903 16.6774 13.2903H12V15.9919C12 16.4234 11.4798 16.6371 11.1734 16.3347L7.18145 12.3427C6.99194 12.1532 6.99194 11.8468 7.18145 11.6573L11.1734 7.66532C11.4798 7.35887 12 7.57661 12 8.00806V10.7097H16.6774C16.9435 10.7097 17.1613 10.9274 17.1613 11.1935Z" fill="white"/>
</svg>
