<svg width="24" height="24" viewBox="0 0 24 24" fill="none" xmlns="http://www.w3.org/2000/svg">
<path d="M13.2903 3.11094V3.78267C13.2903 4.21831 13.5839 4.59553 14.0035 4.71275C17.1292 5.58585 19.4194 8.45214 19.4194 11.8587C19.4194 15.959 16.101 19.278 12 19.278C7.89965 19.278 4.58066 15.9597 4.58066 11.8587C4.58066 8.45262 6.87042 5.58593 9.99646 4.71275C10.4161 4.59553 10.7097 4.21823 10.7097 3.78255V3.11126C10.7097 2.47783 10.1115 2.01638 9.49816 2.1744C5.16949 3.2894 1.97558 7.22988 2.00014 11.9124C2.02917 17.4387 6.49518 21.8703 12.0215 21.8586C17.5345 21.847 22 17.3743 22 11.8587C22 7.19605 18.8089 3.27888 14.4915 2.17174C13.8822 2.01549 13.2903 2.4819 13.2903 3.11094Z" fill="white"/>
</svg>
