<svg width="16" height="17" viewBox="0 0 16 17" fill="none" xmlns="http://www.w3.org/2000/svg">
<path d="M15.7372 15.38L12.7159 12.1794C13.6907 10.8599 14.2196 9.23054 14.2176 7.55312C14.2176 6.05926 13.8007 4.59894 13.0196 3.35683C12.2385 2.11473 11.1282 1.14663 9.82925 0.57495C8.53028 0.00327264 7.10094 -0.146304 5.72196 0.145134C4.34299 0.436573 3.07631 1.15594 2.08213 2.21226C1.08794 3.26858 0.410893 4.61442 0.136597 6.07958C-0.137698 7.54475 0.00308013 9.06343 0.54113 10.4436C1.07918 11.8237 1.99033 13.0034 3.15937 13.8333C4.32841 14.6633 5.70283 15.1062 7.10882 15.1062C8.68756 15.1083 10.2211 14.5464 11.463 13.5106L14.4753 16.7207C14.5579 16.8092 14.6562 16.8795 14.7645 16.9274C14.8728 16.9753 14.9889 17 15.1062 17C15.2236 17 15.3397 16.9753 15.448 16.9274C15.5563 16.8795 15.6545 16.8092 15.7372 16.7207C15.8204 16.633 15.8865 16.5285 15.9317 16.4135C15.9768 16.2984 16 16.175 16 16.0504C16 15.9257 15.9768 15.8023 15.9317 15.6873C15.8865 15.5722 15.8204 15.4678 15.7372 15.38ZM1.77721 7.55312C1.77721 6.43272 2.0899 5.33749 2.67575 4.40591C3.26159 3.47433 4.09428 2.74825 5.0685 2.31949C6.04273 1.89074 7.11474 1.77855 8.14897 1.99713C9.1832 2.21571 10.1332 2.75523 10.8788 3.54748C11.6245 4.33972 12.1323 5.3491 12.338 6.44797C12.5437 7.54684 12.4381 8.68585 12.0346 9.72096C11.6311 10.7561 10.9477 11.6408 10.0709 12.2633C9.19413 12.8857 8.16332 13.218 7.10882 13.218C5.69479 13.218 4.33867 12.6211 3.3388 11.5588C2.33893 10.4964 1.77721 9.05553 1.77721 7.55312Z" fill="white"/>
</svg>
